<svg xmlns="http://www.w3.org/2000/svg" width="122" height="89.633" viewBox="0 0 122 89.633">
  <g id="Path_2" data-name="Path 2" fill="#0d0d0d" stroke-linecap="round">
    <path d="M 61 87.13265228271484 C 53.01685333251953 87.13265228271484 45.27785491943359 85.985595703125 37.99792861938477 83.72338104248047 C 30.99978256225586 81.5487060546875 24.72459983825684 78.44267272949219 19.34667205810547 74.49154663085938 C 14.02585411071777 70.58235931396484 9.85847282409668 66.04770660400391 6.960290908813477 61.01354598999023 C 4.000654697418213 55.87261581420898 2.5 50.42308807373047 2.5 44.81632614135742 C 2.5 39.20956420898438 4.000654697418213 33.76003646850586 6.960290908813477 28.61910820007324 C 9.85847282409668 23.5849437713623 14.02585411071777 19.05028915405273 19.34667205810547 15.1411075592041 C 24.72459983825684 11.18998050689697 30.99978256225586 8.083944320678711 37.99792861938477 5.909271717071533 C 45.27785491943359 3.647053480148315 53.01685333251953 2.499998807907104 61 2.499998807907104 C 68.98314666748047 2.499998807907104 76.72214508056641 3.647053480148315 84.0020751953125 5.909271717071533 C 91.00022125244141 8.083944320678711 97.27539825439453 11.18998050689697 102.6533279418945 15.1411075592041 C 107.9741439819336 19.05028915405273 112.1415252685547 23.5849437713623 115.0397109985352 28.61910820007324 C 117.9993438720703 33.76003646850586 119.5 39.20956420898438 119.5 44.81632614135742 C 119.5 50.42308807373047 117.9993438720703 55.87261581420898 115.0397109985352 61.01354598999023 C 112.1415252685547 66.04770660400391 107.9741439819336 70.58235931396484 102.6533279418945 74.49154663085938 C 97.27539825439453 78.44267272949219 91.00022125244141 81.5487060546875 84.0020751953125 83.72338104248047 C 76.72214508056641 85.985595703125 68.98314666748047 87.13265228271484 61 87.13265228271484 Z" stroke="none"/>
    <path d="M 61 5.000007629394531 C 53.2686767578125 5.000007629394531 45.77925872802734 6.109169006347656 38.73979949951172 8.296669006347656 C 32.00736236572266 10.38876342773438 25.98058319091797 13.36942291259766 20.82688140869141 17.15580749511719 C 15.78736114501953 20.85830688476563 11.85092163085938 25.134765625 9.126899719238281 29.86642456054688 C 6.388496398925781 34.62308502197266 5 39.65294647216797 5 44.81632614135742 C 5 49.97970581054688 6.388481140136719 55.00956726074219 9.126899719238281 59.76620483398438 C 11.85092163085938 64.49786376953125 15.78736114501953 68.77434539794922 20.82688140869141 72.47684478759766 C 25.98058319091797 76.26322937011719 32.00736236572266 79.24388885498047 38.73979949951172 81.33598327636719 C 45.77925872802734 83.52348327636719 53.2686767578125 84.63264465332031 61 84.63264465332031 C 68.7313232421875 84.63264465332031 76.22074127197266 83.52348327636719 83.26020050048828 81.33598327636719 C 89.99264526367188 79.24388885498047 96.01942443847656 76.26322937011719 101.1731185913086 72.47684478759766 C 106.2126388549805 68.77434539794922 110.1490783691406 64.49786376953125 112.8731002807617 59.76620483398438 C 115.6115188598633 55.00956726074219 117 49.97970581054688 117 44.81632614135742 C 117 39.65294647216797 115.6114959716797 34.62308502197266 112.8731002807617 29.86642456054688 C 110.1490783691406 25.134765625 106.2126388549805 20.85830688476563 101.1731185913086 17.15580749511719 C 96.01942443847656 13.36942291259766 89.99264526367188 10.38876342773438 83.26020050048828 8.296669006347656 C 76.22074127197266 6.109169006347656 68.7313232421875 5.000007629394531 61 5.000007629394531 M 61 7.62939453125e-06 C 94.68936157226563 7.62939453125e-06 122 20.06494903564453 122 44.81632614135742 C 122 69.56768798828125 94.68936157226563 89.63264465332031 61 89.63264465332031 C 27.31063842773438 89.63264465332031 0 69.56768798828125 0 44.81632614135742 C 0 20.06494903564453 27.31063842773438 7.62939453125e-06 61 7.62939453125e-06 Z" stroke="none" fill="#079fe2"/>
  </g>
</svg>
